<svg xmlns="http://www.w3.org/2000/svg" fill="none" viewBox="0 0 24 24" id="Blender--Streamline-Svg-Logos" height="24" width="24">
  <desc>
    Blender Streamline Icon: https://streamlinehq.com
  </desc>
  <path fill="#ffffff" d="M9.469175 13.029775c0.08545 -1.5243 0.831875 -2.86725 1.957975 -3.819225 1.104325 -0.93505 2.59075 -1.506575 4.2126 -1.506575 1.620225 0 3.10665 0.571525 4.211775 1.506575 1.1253 0.951975 1.87175 2.294925 1.958 3.817625 0.085425 1.566225 -0.544125 3.0212 -1.64845 4.09975 -1.1261 1.097075 -2.7278 1.785475 -4.521325 1.785475 -1.79355 0 -3.39845 -0.6884 -4.52375 -1.785475 -1.10515 -1.07855 -1.733075 -2.533525 -1.646825 -4.09815Z" stroke-width="0.25"></path>
  <path fill="#265787" d="M12.474375 13.165825c0.04385 -0.78215 0.42685 -1.4712 1.00465 -1.959675 0.56665 -0.4798 1.32935 -0.77305 2.161525 -0.77305 0.83135 0 1.59405 0.29325 2.1611 0.77305 0.5774 0.488475 0.9604 1.177525 1.00465 1.95885 0.04385 0.803625 -0.279175 1.5502 -0.845825 2.1036 -0.5778 0.562925 -1.39965 0.91615 -2.319925 0.91615s-1.743775 -0.353225 -2.321175 -0.91615c-0.56705 -0.5534 -0.88925 -1.299975 -0.845 -2.102775Z" stroke-width="0.25"></path>
  <path fill="#ea7600" d="M7.447875 14.772425c0.005375 0.306725 0.1032 0.902775 0.249925 1.36825 0.3084 0.98525 0.831475 1.896725 1.559325 2.700025 0.746925 0.825675 1.6667 1.48885 2.72905 1.959725 1.11665 0.4945 2.32655 0.7465 3.5833 0.74445 1.254675 -0.001675 2.464575 -0.25865 3.581225 -0.756875 1.06235 -0.475425 1.9813 -1.141525 2.726975 -1.967625 0.727425 -0.8066 1.2497 -1.719725 1.5589 -2.704975 0.15545 -0.497825 0.253675 -1.003075 0.29305 -1.51 0.03855 -0.499475 0.0224 -0.999775 -0.0485 -1.49965 -0.138425 -0.974075 -0.475425 -1.888025 -0.994375 -2.72115 -0.474575 -0.765575 -1.086375 -1.435825 -1.813825 -1.99995l0.001675 -0.00125 -7.341125 -5.6367c-0.006625 -0.004975 -0.012025 -0.010375 -0.019075 -0.014925 -0.481625 -0.36973 -1.29155 -0.3684875 -1.821275 0.002075 -0.535525 0.3747 -0.596875 0.994375 -0.1202 1.385225l-0.002075 0.002075 3.061875 2.489875 -9.33235 0.00995h-0.01245c-0.771375 0.000825 -1.5129 0.506925 -1.659625 1.1465 -0.150875 0.651575 0.37305 1.192075 1.1751 1.194975l-0.00125 0.0029 4.7302 -0.0091L1.0915875 15.4352c-0.0107775 0.007875 -0.0223825 0.016175 -0.03233 0.02405 -0.796245 0.609725 -1.05364595 1.623575 -0.5521075 2.2652 0.509 0.652425 1.591245 0.653675 2.395775 0.00375l4.6067 -3.77025s-0.06715 0.509 -0.06175 0.814475Zm11.83755 1.7044c-0.9492 0.967025 -2.278075 1.5154 -3.71595 1.5183 -1.43995 0.0025 -2.768825 -0.540925 -3.718025 -1.506275 -0.463825 -0.47045 -0.804525 -1.011775 -1.014675 -1.58835 -0.206 -0.5666 -0.286 -1.168025 -0.23295 -1.77485 0.05015 -0.59315 0.226725 -1.158925 0.508575 -1.670825 0.2769 -0.5032 0.658225 -0.9579 1.1291 -1.34255 0.92265 -0.7519 2.09735 -1.158925 3.3259 -1.1606 1.2298 -0.00165 2.40365 0.40165 3.32715 1.15105 0.470025 0.383 0.85095 0.83605 1.12785 1.3384 0.2831 0.5115 0.458425 1.0752 0.51065 1.67 0.052225 0.606 -0.027775 1.2066 -0.233775 1.773625 -0.210575 0.578225 -0.550025 1.11955 -1.01385 1.592075Z" stroke-width="0.25"></path>
</svg>