<svg xmlns="http://www.w3.org/2000/svg" fill="none" viewBox="0 0 24 24" id="Flask--Streamline-Svg-Logos" height="24" width="24">
  <desc>
    Flask Streamline Icon: https://streamlinehq.com
  </desc>
  <path fill="#ffffff" d="M8.31955 14.782775c-0.69675 -0.548175 -1.440275 -1.073475 -1.94825 -1.81365 -1.069175 -1.305225 -1.892125 -2.816075 -2.454775 -4.4041 -0.340225 -1.032675 -0.45665 -2.139775 -0.89545 -3.132375 -0.45845 -0.721175 0.07895 -1.50895 0.868775 -1.73805 0.351375 -0.067725 0.969625 -0.399475 0.22335 -0.162125 -0.669225 0.49075 -0.7337 -0.445875 -0.0476 -0.5052 0.46825 -0.0621 0.640625 -0.445275 0.480325 -0.7901875 -0.502825 -0.3280375 1.218825 -0.6878975 0.35245 -1.1772C3.99645 0.08642225 6.1605 -0.100925 5.62645 1.004735c-0.12765 0.85012 1.512675 -0.1561225 1.13175 0.825715 0.387025 0.4716 1.448775 0.1075525 1.4221 0.768775 0.5636 0.03875 0.75705 0.512625 1.285575 0.549125 0.54865 0.247625 1.542225 0.442525 1.7286 1.0603 -0.54385 0.43045 -1.802875 -0.889225 -1.86365 0.30245 0.1645 1.760775 0.1225 3.57455 0.7665 5.251225 0.304575 1.0151 1.04345 1.814125 1.710275 2.604925 0.638375 0.77425 1.502975 1.319675 2.384325 1.7786 0.77295 0.364525 1.6062 0.60605 2.448775 0.758 0.341575 -0.261275 0.944875 -1.232825 1.4776 -0.82345 0.025725 0.460825 -1.057425 0.9627 -0.050825 0.911725 0.591575 -0.178475 1.00145 0.457025 1.488375 -0.1164 0.448625 0.531425 1.8646 -0.339275 1.545425 0.746875 -0.43175 0.278525 -1.061275 0.1102 -1.493525 0.4935 -0.71265 -0.35615 -1.280075 0.318225 -2.0693 0.233175 -0.8762 0.15695 -1.76795 0.220125 -2.65625 0.221425 -1.457625 -0.11495 -2.946 -0.163525 -4.33255 -0.671025 -0.781325 -0.22705 -1.543525 -0.671975 -2.2301 -1.1169Zm1.230925 0.5337c0.76265 0.32945 1.508575 0.677125 2.344575 0.782275 1.326275 0.184125 2.695975 0.46825 4.0269 0.20935 -0.60235 -0.271925 -1.2253 0.10565 -1.825375 -0.1944 -0.7196 0.1547 -1.492075 -0.0397 -2.224 -0.13555 -0.831825 -0.3705 -1.729925 -0.6252 -2.508975 -1.1066 -0.97395 -0.35555 0.5033 0.45615 0.766375 0.522075 0.60845 0.345275 -0.669225 -0.177175 -0.84965 -0.320625 -0.50975 -0.28605 -0.574725 -0.226225 -0.05035 0.064 0.1055 0.06175 0.209825 0.1267 0.3205 0.179475Zm-1.451525 -1.02575c0.739325 0.273825 -0.00325 -0.5197 -0.341575 -0.473875 -0.15 -0.260325 -0.5734 -0.424825 -0.2748 -0.56455 -0.5369 0.1865 -0.562625 -0.70895 -0.814925 -0.580825 -0.568275 -0.17945 -0.2211 -0.815075 -0.898225 -1.205675 -0.061725 -0.4113 -0.672475 -0.767825 -0.866875 -1.388 -0.086025 -0.31775 -0.690275 -1.229475 -0.319175 -0.380925 0.315825 0.816875 0.871525 1.516975 1.33415 2.215625 0.3589 0.665425 0.78325 1.361325 1.43705 1.77635 0.2206 0.211625 0.4332 0.535475 0.744375 0.601875Zm-2.129025 -2.338025c0.135075 0.24155 0.0256 -0.111725 0 0ZM8.9846 14.61875c0.163525 -0.073325 -0.235575 -0.092475 0 0Zm0.4009 0.146325c-0.041525 -0.20195 -0.183175 0.11305 0 0Zm0.50245 0.20935c0.2388 -0.22765 -0.3687 -0.14355 0 0Zm0.860775 0.47985c0.14535 -0.2145 -0.465025 -0.08075 0 0Zm-1.652875 -1.1523c0.371 -0.240225 -0.479975 -0.00335 0 0Zm0.376625 0.187825c-0.010775 -0.1267 -0.134125 0.056925 0 0Zm1.8828 1.175275c0.302775 0.191175 1.76795 0.418725 0.8506 0.078475 -0.15385 0.0323 -1.7011 -0.43785 -0.8506 -0.078475Zm-2.98895 -2.3282c-0.029425 -0.12705 -0.470175 -0.1407 0 0Zm0.8762 0.511325c0.2285 -0.15935 -0.4734 -0.123 0 0Zm0.737425 0.45185c0.32755 -0.12335 -0.530825 -0.123825 0 0Zm-1.970725 -1.3515c0.355175 0.2724 1.43285 0.03505 0.543975 -0.1626 -0.40425 -0.21545 -1.3155 -0.363075 -0.694375 0.129925l0.1504 0.032675Zm2.470325 1.507625c0.1481 -0.25195 -0.620675 -0.14405 0 0Zm-0.7506 -0.596375c0.868325 0.245375 -0.73035 -0.5496 -0.214375 -0.090675l0.1145 0.0519 0.099875 0.038775Zm1.5049 0.86975c0.822475 0.007875 -0.74305 -0.11355 0 0ZM7.6929 12.47275c-0.0323 -0.15325 -0.202775 0.012675 0 0Zm4.932175 3.03715c0.021875 -0.276575 -0.26835 0.20615 0 0Zm-3.528375 -2.1777c-0.050025 -0.145825 -0.256975 -0.0061 0 0Zm-1.3258 -0.955625c0.472075 -0.028475 -0.64675 -0.207925 0 0Zm-1.570675 -1.0151c-0.05885 -0.2266 -0.5136 -0.407 0 0Zm4.1232 2.61665c-0.040675 0.0214 -0.086375 -0.0987 0 0Zm2.566025 1.57485c-0.0079 -0.150975 -0.139725 0.05695 0 0ZM10.09635 13.7435c0.0463 -0.1944 -0.4028 -0.058975 0 0Zm-1.911875 -1.211775c0.3515 -0.037425 -0.5631 -0.237475 0 0Zm3.23395 2.0095c0.5477 -0.2169 -0.533675 -0.105625 0 0Zm-1.681925 -1.14165c0.630825 0.081225 -0.75095 -0.4295 -0.138775 -0.045825l0.138775 0.045825Zm2.19265 1.34815c0.589325 -0.35185 0.394925 0.824875 0.999675 0.099525 0.59625 -0.43545 -0.515025 0.53835 0.21965 0.07765 0.531775 -0.355675 1.3168 0.168675 1.8127 0.339275 0.3565 -0.01735 0.703325 0.308425 1.06915 0.1102 0.703825 -0.18975 -1.376625 -0.281275 -0.831325 -0.617325 -0.644 0.187475 -1.11965 -0.22335 -1.436575 -0.635975 -0.722475 -0.166875 -1.557525 -0.536075 -1.918325 -1.175775 -0.14715 -0.239725 0.212225 0.0341 -0.12705 -0.3584 -0.435125 -0.387025 -0.652375 -0.8268 -0.944525 -1.297325 -0.3491 -0.186025 -0.39025 -0.7342 -0.4253 -0.018175 0.002875 -0.452 -0.421475 -0.756225 -0.5252 -0.63 -0.0019 -0.435125 0.45425 -0.2169 0.135075 -0.538825 -0.068675 -0.451025 -0.2949 -0.921075 -0.362725 -1.430475 -0.105525 -0.245375 -0.01495 -0.77105 -0.3607 -0.215475 -0.125725 0.587425 -0.041625 -0.7215 0.1542 -0.290225 0.256975 -0.440125 -0.0926 -0.388325 -0.106575 -0.32755 0.16735 -0.371475 0.1061 -0.8987 -0.043925 -0.697725 0.08925 -0.39395 0.141175 -1.4496 -0.13315 -1.26225 0.1663 -0.41215 0.315475 -1.8852 -0.4071 -1.3234 -0.292525 0.0042 -0.799525 0.106125 -1.0388 0.225275 0.75095 0.41405 -0.075725 0.14955 -0.381875 0.083625 -0.0397 0.3832 -0.3425 0.217725 -0.721025 0.22145 0.60475 0.074775 -0.294425 0.618275 -0.64065 0.4071 -0.45055 0.215 0.388325 0.7524 0.00885 0.918675 0.046775 0.25005 -0.6898 -0.09055 -0.63225 0.488 -0.437025 -0.18425 -0.059825 0.685975 0.158875 0.39155 0.743525 0.201475 0.5234 0.6599 0.54205 1.09585 -0.121075 0.25375 -0.598175 -0.596725 -0.106125 -0.5575 -0.388325 -0.63045 -0.42935 -0.228 -0.7519 0.064975 -0.07475 0.02105 0.8225 0.4168 0.259375 0.612175 0.4954 0.076675 0.509875 0.51035 0.61085 0.784675 0.29765 0.3102 0.2364 -0.342625 0.593025 0.030375 -0.22575 -0.332325 -1.19455 -0.936125 -0.414525 -0.74255 -0.0042 -0.33415 -0.141175 -0.6038 0.0981 -0.59735 0.237 -0.428525 -0.248125 1.0571 0.285575 0.512275 0.147625 -0.064475 0.184575 -0.429 0.45005 0.034575 0.385475 0.379475 0.13925 0.654175 -0.404725 0.3065 0.09715 0.330425 0.727625 0.44815 0.60895 0.964625 0.1256 0.45425 0.30135 0.286875 0.4546 0.260675 0.120125 0.4412 0.188425 0.116875 0.19405 -0.093425 0.54995 0.117825 0.421 0.443 0.5934 0.670175 0.379 0.170975 -0.54255 -1.1595 0.108025 -0.40005 0.68455 0.618275 0.256975 0.8762 -0.357475 0.77715 0.388825 -0.03135 0.51395 0.5258 1.0005 0.506175 0.4435 0.21115 0.744 1.02155 -0.020575 0.68405 -0.265 -0.23925 -1.203875 -0.53415 -0.4369 -0.079425 0.707525 0.328025 1.27015 0.523875 1.9529 0.93565 0.48835 0.348625 0.6995 0.748075 0.884575 0.82715 -0.4107 0.1962 -1.237375 -0.1566 -0.6234 -0.2645 -0.3832 -0.069625 -0.814 -0.26355 -0.4472 0.21355 0.312125 0.2608 1.105175 0.233175 1.247775 0.2626 -0.120575 0.26545 -0.32755 0.286525 0.004675 0.3071 -0.370625 0.197625 0.11915 0.2285 0.15325 0.341075Zm-0.758 -2.14075c-0.22575 -0.236025 -0.284125 -0.6776 -0.0402 -0.293575 0.12525 0.0505 0.40055 0.722125 0.0402 0.293575Zm2.4689 1.5683c0.140675 -0.009325 0.004175 0.10695 0 0Zm-2.824925 -2.14685c0.081225 0.275175 -0.008975 -0.356625 0 0Zm-0.245375 -0.32995c0.357475 0.155175 -0.284125 -0.54815 0 0Zm-2.9741 -2.052425c0.166875 -0.044525 0.0823 0.28495 0 0Zm2.367075 1.2827c0.1201 0.32255 0.102275 -0.384625 0 0Zm-1.672125 -1.162725c0.246325 0.1992 -0.117725 -0.2121 0 0Zm1.43465 0.459875c-0.2687 -0.601875 0.1907 -0.329 0.059825 0.098575l-0.059825 -0.098575Zm-2.4744 -1.6501c-0.1201 -0.19765 -0.3187 -0.77715 -0.2547 -0.954225 0.057425 0.288325 0.61265 1.24025 0.271925 0.39445 -0.376125 -0.70895 0.450075 0.229825 0.535125 0.407 0.039725 0.175725 -0.232325 -0.0481 -0.0482 0.364525 -0.33595 -0.4697 -0.198125 0.25935 -0.50415 -0.21175Zm-0.764575 -0.527125c0.174775 0.315 0.03135 -0.4594 0 0Zm0.34395 0.118675c0.278025 0.4832 0.164025 -0.3467 0 0Zm-0.827625 -0.64015c-0.284625 -0.2833 -0.49075 -0.543975 0.0135 -0.17575 0.193925 0.007425 -0.43175 -0.593025 0.046775 -0.1907 0.502825 0.09165 0.248125 0.824875 -0.060275 0.36645Zm0.434625 -0.01125c0.16545 -0.164025 0.0878 0.161275 0 0Zm0.26775 0.08555c0.304225 0.19715 -0.251 -0.4697 0 0Zm-0.531775 -0.507975c-0.82765 -0.737075 1.039725 0.384975 0.13505 0.136375l-0.13505 -0.136375Zm2.371625 1.377575c-0.358425 -0.2145 -0.09535 -1.5117 0.02715 -0.624725 0.348125 -0.1127 -0.01925 0.45845 0.2401 0.452825 -0.04055 0.360225 -0.15695 0.489775 -0.26725 0.1719Zm0.87715 0.51875c0.073825 0.267375 0.03505 -0.3911 0 0Zm-0.1523 -0.150975c0.03925 -0.166775 0.003725 0.1968 0 0Zm-2.934375 -1.9875c-0.531775 -0.7337 1.545425 0.7421 0.3407 0.18605 -0.125725 -0.03315 -0.27755 -0.044875 -0.3407 -0.18605Zm1.68935 0.895475c0.112225 0.102275 -0.050375 -0.6178 0 0Zm1.28235 0.82285c0.099075 -0.35185 0.00755 0.2328 0 0Zm-2.889875 -1.998275c0.31595 -0.0677 1.3094 0.55475 0.397175 0.177675 -0.101325 -0.112225 -0.31775 -0.06125 -0.397175 -0.177675Zm2.713675 1.352475c0.033725 -0.631775 0.1889 -0.377075 0.001425 0.090675l-0.001425 -0.090675Zm-2.4786 -1.572475c0.128975 -0.1889 -0.34215 -0.853825 0.067725 -0.238425 0.177175 0.1407 0.512625 0.23555 0.2164 0.2949 0.465875 0.410825 -0.113525 0.11125 -0.284125 -0.056475Zm2.344475 1.375325c0.0889 -0.719725 0.0786 0.421475 0 0Zm-2.61365 -2.0399c0.098575 -0.0421 0.052275 0.13125 0 0Zm0.6117 0.36405c0.290225 0.36825 0.157425 -0.330425 0 0Zm1.724875 0.95935c0.032675 0.1846 -0.001425 -0.126575 0 0Zm-0.1 -0.22095c0.222875 0.3126 -0.239275 -0.590775 0 0Zm-0.1468 -0.3875c0.1365 0.306625 -0.040075 -0.24395 0 0Zm0.239275 -0.388825c-0.1645 -0.289275 0.20755 -1.275775 0.2492 -0.66395 -0.173475 0.4766 -0.050025 0.74305 0.07045 0.1037 0.223475 -0.5028 -0.048075 0.9931 -0.31965 0.56025Zm0.24585 -1.466825c0.071525 -0.087925 0.0159 0.106 0 0Zm-0.410725 8.09075c0.012575 0.0537 -0.09725 -0.085075 0 0Zm0.845825 0.427575c0.470525 0.121075 0.46825 -0.072975 0.04295 -0.130875 -0.2285 -0.2126 -0.9505 -0.43835 -0.304225 -0.0262 0.042575 0.1085 0.17765 0.105625 0.261275 0.157075Zm-1.670225 -1.1095c0.2589 0.193575 0.976225 0.5477 0.3692 0.07395 0.2047 -0.237975 -0.391675 -0.364525 -0.193925 -0.5239 -0.5033 -0.30805 -0.3973 -0.280425 -0.044375 -0.2706 -0.60475 -0.270625 0.087325 -0.25005 0.054675 -0.388825 -0.233175 -0.0458 -1.15855 -0.4113 -0.6141 0.029925 -0.5533 -0.281875 -0.131825 0.10515 -0.299075 0.064475 -0.566 -0.1542 0.503775 0.430925 -0.089725 0.285575 0.324325 0.256975 0.87345 0.65895 0.13685 0.271925 -0.09665 0.139725 0.527225 0.351475 0.680475 0.457475Zm0.8846 0.50845c1.075375 0.34635 -0.5276 -0.423875 0 0Zm4.528375 2.743225c0.014 -0.21355 -0.146775 0.1822 0 0Zm0.4655 0.195825c0.248125 -0.240225 0.0103 0.3832 0.4112 -0.05885 0.004175 -0.316425 -0.0121 -0.5033 -0.460725 -0.1188 -0.12395 0.0688 -0.178975 0.35985 0.049525 0.17765Zm-7.388375 -4.64c-0.0762 -0.299575 -0.53415 -0.29825 0 0Zm0.496725 0.325625c-0.1846 -0.306025 -0.658475 -0.277075 0 0Zm2.8278 1.705275c0.276225 0.245375 1.267875 0.179925 0.3351 0.0304 -0.13795 -0.204225 -0.876675 -0.155175 -0.3351 -0.0304Zm3.886675 2.4007c0.424825 -0.356625 -0.41165 0.158875 0 0Zm0.88375 0.607025c0.00275 -0.1145 -0.183175 0.05 0 0Zm0.001425 -0.1603c0.470525 -0.498175 -0.455675 0.029425 0 0ZM4.990375 9.739c-0.4009 -0.571975 -0.2491 -0.829075 -0.635975 -1.296375 -0.073475 -0.35745 -0.663625 -1.16785 -0.3052 -0.309375 0.32805 0.50235 0.4253 1.279975 0.941175 1.60575Zm9.17115 5.7434c0.866025 -0.559425 -0.355075 -0.24345 0 0Zm0.660875 0.258875c0.43365 -0.37205 -0.274325 -0.077625 0 0Zm-8.75675 -5.6112c0.123925 -0.1846 -0.3205 -0.0238 0 0Zm8.6188 5.4345c0.419675 -0.270475 -0.096675 -0.228975 -0.076075 0.024775l0.076075 -0.024775ZM8.988775 11.9746c-0.014475 -0.18315 -0.221925 0.015425 0 0Zm0.35185 0.202425c-0.1121 -0.226225 -0.171925 0.035525 0 0Zm6.01725 3.57035c0.537875 -0.387975 -0.32565 -0.0744 -0.112575 0.073825l0.112575 -0.073825Zm-0.206025 -0.099525c0.43835 -0.366925 -0.46225 0.162575 0 0Zm1.052325 0.70045c0.29405 -0.1968 -0.357475 -0.063525 0 0ZM6.3353 9.996925c0.39395 0.0883 1.57535 0.9706 0.8786 0.06125 -0.357 -0.105625 -0.142975 -0.978125 -0.507025 -0.823925 0.244425 0.40845 0.200875 0.5818 -0.31225 0.324825 -0.64435 -0.315 -0.362125 0.155625 -0.2359 0.28555 -0.17205 0.03925 0.22705 0.149075 0.176575 0.1523Zm-1.795825 -1.418275c0.07045 -0.292125 -0.6501 -1.605725 -0.34025 -0.65845 0.111625 0.198575 0.100025 0.574725 0.34025 0.65845Zm3.2964 2.03235c-0.009825 -0.024275 -0.203275 -0.169625 0 0Zm0.499575 0.1164c0 -0.30935 -0.55235 -0.125725 0 0Zm4.332075 2.73055c-0.08265 -0.211275 -0.3266 -0.004675 0 0Zm0.207925 0.1518c-0.03085 -0.1182 -0.1201 0.022975 0 0Zm1.717 1.081875c0.164975 -0.121925 -0.206125 -0.0158 0 0ZM5.43625 8.80765c0.472425 -0.1828 -0.506175 -0.1304 0 0Zm6.8499 4.3152c-0.0055 -0.305675 -0.301375 0.0762 0 0ZM5.249725 8.372525c0.303275 -0.102275 -0.2809 -0.067225 0 0Zm0.8804 0.426625c-0.00515 -0.100375 -0.09295 0.0384 0 0Zm10.741475 6.58695c0.390125 -0.078975 1.2795 0.198575 1.422925 -0.10325 -0.473875 -0.011725 -1.63885 -0.334625 -1.694025 0.07655l0.103725 0.0164 0.167375 0.0103ZM6.410075 8.869725c0.00705 -0.30985 -0.24155 -0.0116 0 0Zm-2.31505 -1.606075c-0.10515 -0.590275 -0.40005 -0.089375 0 0Zm0.551875 0.138775c0.00705 -0.18975 -0.505225 -0.1706 0 0Zm0.315475 0.15515c-0.071075 0.092975 -0.091175 -0.073925 0 0Zm1.985575 1.2734c0.09355 -0.086025 -0.22145 -0.063525 0 0Zm-2.195425 -1.622975c-0.0537 -0.445875 -0.6398 -0.066875 0 0Zm-1.132325 -0.734675c-0.015925 -0.20565 -0.1103 0.077525 0 0Zm0.168675 -0.12705c-0.027525 -0.24405 -0.144875 0.03075 0 0Zm0.93005 0.555125c0.393475 -0.154225 -0.7165 -0.319675 -0.0804 -0.028975l0.0804 0.028975Zm12.451275 7.69115c0.25185 -0.230775 -0.31965 -0.071425 0 0Zm1.5043 0.77955c0.100975 -0.298125 -0.254225 0.039225 0 0ZM4.81415 6.414c0.041625 -0.2888 -0.312125 0.057425 0 0Zm-1.323875 -0.886975c-0.071075 -0.407475 -0.06125 -1.123 0.61875 -0.88135 -0.90755 0.180425 0.62855 1.128525 0.434625 0.37985 0.38175 0.018775 0.74675 -0.225625 0.54625 0.144875 0.752375 -0.082675 1.2735 -0.735025 2.000175 -0.6434 0.56585 -0.07525 1.1846 -0.131825 1.7945 -0.35985 0.5014 -0.036025 0.984125 -0.5758 0.709425 -0.89595 -0.6837 -0.0579 -1.3997 0.02765 -2.155325 0.17815 -0.837425 0.173825 -1.5982 0.5046 -2.443175 0.646725 -0.8239 0.1108 0.165475 0.304725 -0.070575 0.34815 -0.429475 0.14905 0.512625 0.24955 -0.055625 0.407 -0.3509 -0.066775 -0.716375 -0.18735 -0.56635 -0.5575 -0.788875 0.102875 -1.4824 0.42995 -0.858975 1.232825l0.0463 0.000475Zm1.901575 -0.968325c0.1846 -0.6813 0.9907 0.56085 0.3028 0.0907 -0.081825 -0.06175 -0.217375 -0.11175 -0.3028 -0.0907Zm0.0359 -0.330425c0.2669 -0.198575 0.14165 0.11175 0 0Zm0.3388 0.005625c0.0244 -0.31355 0.7763 0.165925 0.12395 0.1127l-0.12395 -0.1127Zm0.463575 -0.186375c0.16965 -0.19825 0.049175 0.1756 0 0Zm0.1188 -0.07945c0.282225 -0.3388 1.596775 -0.216425 0.63455 -0.03325 -0.257925 -0.194425 -0.455575 0.114475 -0.63455 0.03325Zm1.715925 -0.2645c0.852875 0.3285 -0.042475 -0.92585 0 0Zm0.487025 -0.002875c0.178025 -0.46635 0.691125 -0.18735 0.082675 -0.093925 0.013025 0.05 -0.0182 0.2412 -0.082675 0.093925Zm-3.92975 2.474025c0.531775 -0.32575 -0.56455 -0.2827 0 0Zm0.393475 0.108875c0.186525 -0.198125 -0.405675 -0.0804 0 0Zm-1.1589 -0.822c0.30375 -0.23365 -0.35985 -0.088775 0 0Zm15.705725 9.825425c0.00885 -0.271075 -0.232325 0.121925 0 0Zm-1.595925 -1.089375c0.04535 -0.31165 -0.205175 0.02715 0 0Zm2.034725 1.19455c0.424825 0.001425 1.2874 -0.132325 0.3631 -0.13185 -0.14535 0.0225 -0.845325 0.017825 -0.3631 0.13185Zm-14.63975 -9.299775c0.34395 -0.023325 0.537875 -0.379 -0.066875 -0.3589 -0.936975 -0.096675 0.826675 0.3211 -0.120125 0.20145 -0.12705 0.0841 0.17945 0.1809 0.187 0.15745Zm0.3028 0.153375c-0.036025 -0.220625 -0.1066 0.117225 0 0Zm0.359375 -0.95805c0.14905 -0.185075 -0.2066 -0.049525 0 0Zm-1.144075 -1.911875c0.6141 -0.2084 1.45345 -0.443 1.7432 0.1029 -0.2949 -0.354725 -0.11915 -0.7043 0.15935 -0.185075 0.39395 0.524825 0.591125 -0.2388 0.334975 -0.415025 0.29215 0.362625 0.6239 0.534175 0.195375 0.022975 0.465975 -0.56036 -0.932325 0.07335 -1.250075 0.06675 -0.152775 0.068675 -1.578575 0.363575 -1.182825 0.407475Zm0.359875 -0.688725c0.35005 -0.26403 1.2108 0.15745 0.65845 -0.262715 -0.054175 -0.047615 -1.209375 0.318715 -0.65845 0.262715Zm1.27625 0.05275c0.4094 0.0103 -0.176575 -0.5505475 0.3113 -0.2963225 -0.079925 -0.2616425 -0.568275 -0.3106925 -0.80705 -0.4153725 -0.135075 0.23927 0.274675 0.714945 0.49575 0.711695Zm-1.052425 -1.1585275c0.14165 -0.1920125 -0.2486 0.09774 0 0Zm0.5216 0.1247775c0.660275 -0.0873325 -0.168325 -0.28413 -0.133275 -0.0069375l0.133275 0.0069375Zm-0.973925 -0.76171c-0.465025 -0.607025 0.8744 0.1019275 0.40185 -0.53369 -0.397675 -0.31631225 -0.779425 0.35663 -0.40185 0.53369ZM10.976275 4.157325c0.213175 -0.377675 -0.879925 -0.5094 -0.14345 -0.13375 0.067725 0.0225 0.0524 0.15985 0.14345 0.13375Z" stroke-width="0.25"></path>
  <path fill="#ffffff" d="M6.6477 18.2234c-0.0471 0.186275 -0.076375 0.498775 -0.087325 0.937425 0 0.086225 -0.038825 0.129325 -0.1166 0.129325 -0.077825 0 -0.131975 -0.037625 -0.16265 -0.112575 -0.083325 -0.202825 -0.162275 -0.3443 -0.23755 -0.425025 -0.0888 -0.0943 -0.206875 -0.151325 -0.354125 -0.170725 -0.158275 -0.025125 -0.552625 -0.03755 -1.183125 -0.03755 -0.14435 0 -0.23895 0.015325 -0.28325 0.045975 -0.027775 0.01935 -0.041625 0.06105 -0.041625 0.124975v1.887375c0 0.063925 0.040225 0.0943 0.1206 0.0917 0.247375 -0.002875 0.6056 -0.0197 1.0749 -0.050075 0.0917 -0.01125 0.153625 -0.041025 0.185475 -0.0897 0.03215 -0.048575 0.0634 -0.174125 0.093775 -0.377 0.019325 -0.111125 0.084725 -0.154225 0.19585 -0.12905 0.09435 0.019425 0.134875 0.062525 0.12095 0.12905 -0.07785 0.3779 -0.103025 0.8695 -0.07525 1.475025 0.00295 0.072075 -0.042825 0.1111 -0.1374 0.116675 -0.07785 0.00835 -0.12645 -0.03335 -0.14585 -0.12505 -0.072 -0.34715 -0.2063 -0.532625 -0.4019 -0.5564 -0.19585 -0.023425 -0.514725 -0.035275 -0.95625 -0.035275 -0.05 0 -0.0749 0.017925 -0.0749 0.054075v1.87495c0 0.138875 0.051175 0.233475 0.153925 0.28325 0.080725 0.0417 0.254275 0.07925 0.520775 0.112575 0.1363 0.01385 0.19585 0.073775 0.1794 0.1791 -0.0168 0.0917 -0.138875 0.12785 -0.36685 0.10845 -0.658275 -0.0529 -1.20135 -0.05 -1.628975 0.00845 -0.11955 0.016425 -0.1791 -0.03215 -0.1791 -0.14585 0 -0.072375 0.05955 -0.114 0.1791 -0.125025 0.272225 -0.030675 0.4082 -0.269625 0.4082 -0.71665V19.119125c0 -0.1831 -0.03265 -0.32405 -0.09775 -0.422725 -0.065425 -0.09865 -0.186975 -0.18835 -0.364575 -0.2688 -0.111125 -0.05 -0.15275 -0.118 -0.124975 -0.2042 0.01385 -0.052675 0.03615 -0.081925 0.066525 -0.087425 0.027775 -0.00835 0.10155 -0.002875 0.220725 0.01675 0.1751 0.027775 0.587675 0.0417 1.2375 0.0417 0.766775 0 1.429025 -0.0168 1.987525 -0.050075 0.186 -0.01125 0.279175 0.004075 0.279175 0.0457 0 0.01135 -0.0014 0.0223 -0.004375 0.03335Z" stroke-width="0.25"></path>
  <path fill="#ffffff" d="M9.349575 23.512475c0 0.1111 -0.062525 0.1597 -0.187475 0.145775 -0.3831 -0.03615 -0.858175 -0.030675 -1.42475 0.016525 -0.114 0.01125 -0.183975 0.00835 -0.210575 -0.008075 -0.026375 -0.016825 -0.0394 -0.062525 -0.0394 -0.137775 0 -0.066525 0.07555 -0.122675 0.226875 -0.168675 0.151625 -0.0457 0.2271 -0.182575 0.2271 -0.410275V19.17935c0 -0.2251 -0.032675 -0.39035 -0.097775 -0.495975 -0.0654 -0.10555 -0.18 -0.18745 -0.343775 -0.2456 -0.0862 -0.030675 -0.129325 -0.073775 -0.129325 -0.129325 0 -0.08335 0.062525 -0.14585 0.187475 -0.187475 0.18895 -0.061125 0.384875 -0.1554 0.587675 -0.283325 0.166675 -0.100075 0.272275 -0.14985 0.3165 -0.14985 0.10275 0 0.1543 0.0706 0.1543 0.212375 0 -0.010975 -0.00555 0.1279 -0.016825 0.416625 -0.008075 0.274875 -0.01095 0.545675 -0.008075 0.8125l0.01645 3.72055c0 0.16955 0.0417 0.292575 0.125025 0.36895 0.083325 0.07635 0.226525 0.127025 0.4291 0.1519 0.12495 0.01385 0.187475 0.06105 0.187475 0.141775Z" stroke-width="0.25"></path>
  <path fill="#ffffff" d="M13.11805 23.266825c0 0.058425 -0.1062 0.146425 -0.318575 0.264425 -0.21265 0.118075 -0.382775 0.1771 -0.5104 0.1771 -0.108525 0 -0.204225 -0.052675 -0.28755 -0.1583 -0.083325 -0.10555 -0.14185 -0.1582 -0.1751 -0.1582 -0.0249 0 -0.1568 0.05695 -0.395825 0.17065 -0.238675 0.114 -0.4791 0.171025 -0.720725 0.171025 -0.227675 0 -0.418125 -0.0668 -0.57085 -0.1999 -0.16665 -0.147325 -0.249975 -0.34725 -0.249975 -0.600125 0 -0.480575 0.550025 -0.824925 1.65005 -1.0332 0.18865 -0.03615 0.284725 -0.1126 0.287325 -0.229175l0.00845 -0.266725c0.016725 -0.455475 -0.184675 -0.68315 -0.6042 -0.68315 -0.119475 0 -0.232575 0.106725 -0.339675 0.320575 -0.10675 0.214125 -0.260375 0.329225 -0.46035 0.34605 -0.2277 0.022 -0.3417 -0.073775 -0.3417 -0.287625 0 -0.1334 0.16955 -0.288725 0.50835 -0.4667 0.3556 -0.186 0.697375 -0.279175 1.025125 -0.279175 0.563675 0 0.84285 0.2682 0.837375 0.804325l-0.016825 1.71635c-0.002575 0.1806 0.07385 0.2708 0.229175 0.2708 0.030675 0 0.089125 -0.006875 0.175025 -0.0208 0.0863 -0.01385 0.1363 -0.020825 0.150225 -0.020825 0.08045 0 0.12065 0.054375 0.12065 0.1626Zm-1.283175 -0.949875c0.002875 -0.0695 -0.01335 -0.115475 -0.048075 -0.137475 -0.03475 -0.022225 -0.0894 -0.0266 -0.164375 -0.012675 -0.669525 0.119475 -1.00425 0.3376 -1.00425 0.6542 0 0.319375 0.17355 0.479075 0.5208 0.479075 0.138875 0 0.282125 -0.0263 0.4291 -0.07895 0.172425 -0.06135 0.25835 -0.134825 0.25835 -0.221025l0.00845 -0.68315Z" stroke-width="0.25"></path>
  <path fill="#ffffff" d="M16.2156 22.787425c0 0.2945 -0.113475 0.52865 -0.3397 0.7022 -0.226275 0.173625 -0.5353 0.260425 -0.927075 0.260425 -0.26095 0 -0.52225 -0.027775 -0.7832 -0.083325 -0.2251 -0.050075 -0.355625 -0.095775 -0.391775 -0.137475 -0.022275 -0.039025 -0.03325 -0.2291 -0.03325 -0.57085 0 -0.147275 0.03325 -0.223625 0.100075 -0.2291 0.066575 -0.00845 0.12355 0.027775 0.170725 0.1082 0.2083 0.363975 0.5445 0.545975 1.008325 0.545975 0.39145 0 0.587375 -0.136275 0.587375 -0.408575 0 -0.119175 -0.0443 -0.219325 -0.1334 -0.29975 -0.09725 -0.0917 -0.28585 -0.19875 -0.5665 -0.320875 -0.405675 -0.180525 -0.676475 -0.3388 -0.812475 -0.4751 -0.147325 -0.14435 -0.2208 -0.3388 -0.2208 -0.5833 0 -0.30005 0.115175 -0.533225 0.345775 -0.699875 0.213825 -0.1612 0.499975 -0.241625 0.858175 -0.241625 0.2251 0 0.430575 0.017925 0.61685 0.05415 0.2 0.036125 0.304125 0.080425 0.3125 0.133325 0.022 0.1554 0.068 0.3805 0.137475 0.675075 0.008375 0.03585 -0.030725 0.0651 -0.11665 0.087325 -0.0917 0.0194 -0.15275 0.004075 -0.1834 -0.0457 -0.219325 -0.3585 -0.4971 -0.5376 -0.8333 -0.5376 -0.3805 0 -0.57085 0.122125 -0.57085 0.36665 0 0.1362 0.051475 0.244425 0.1542 0.324875 0.0917 0.069475 0.30695 0.177975 0.645825 0.325225 0.35555 0.15275 0.59715 0.290225 0.725075 0.412275 0.16665 0.1583 0.25 0.37095 0.25 0.63745Z" stroke-width="0.25"></path>
  <path fill="#ffffff" d="M21.117425 23.51655c0 0.097175 -0.0654 0.148725 -0.195925 0.154225 -0.194425 0.002875 -0.448775 0.016725 -0.7624 0.041625 -0.155625 0.03065 -0.266725 0.011325 -0.333325 -0.05815 -0.438925 -0.4722 -0.811275 -0.9667 -1.116825 -1.4834 -0.024875 -0.0443 -0.056725 -0.0666 -0.095775 -0.0666 -0.047175 0 -0.129025 0.0417 -0.245625 0.125025 -0.1308 0.072075 -0.1959 0.175025 -0.1959 0.30815 0 0.094575 0.002575 0.230575 0.008375 0.40855 0.00555 0.177625 0.049775 0.294225 0.1331 0.349775 0.058425 0.0391 0.193325 0.069475 0.4042 0.091775 0.1305 0.016725 0.1959 0.065325 0.1959 0.145775 0 0.064 -0.010425 0.103625 -0.03125 0.11865 -0.0208 0.015325 -0.07585 0.018825 -0.16465 0.01045 -0.277775 -0.0249 -0.747075 -0.01105 -1.40815 0.041625 -0.166675 0.013925 -0.25695 -0.006975 -0.270875 -0.062525 -0.0055 -0.019325 -0.008375 -0.0471 -0.008375 -0.083325 0 -0.085925 0.0848 -0.151325 0.25435 -0.19555 0.15275 -0.0391 0.2291 -0.2182 0.2291 -0.5376V19.183425c0 -0.227675 -0.022225 -0.385975 -0.0668 -0.474775 -0.06105 -0.114 -0.18895 -0.202875 -0.3834 -0.2668 -0.0914 -0.030375 -0.1374 -0.073475 -0.1374 -0.12905 0 -0.080725 0.0654 -0.14325 0.19585 -0.18745 0.20835 -0.0695 0.4068 -0.16525 0.59575 -0.287625 0.1528 -0.09985 0.2474 -0.149925 0.28325 -0.149925 0.11405 0 0.171025 0.072075 0.171025 0.216725 0 -0.019625 -0.001425 0.118075 -0.004375 0.41235 -0.0026 0.202825 -0.004 0.4751 -0.004 0.816775l0.008375 2.6081c0 0.0723 0.0194 0.108225 0.05815 0.108225 0.0417 0 0.105625 -0.035925 0.191825 -0.108225 0.2306 -0.180575 0.5139 -0.41665 0.849825 -0.708325 0.0668 -0.069425 0.10005 -0.124975 0.10005 -0.166675 0 -0.074875 -0.1125 -0.12785 -0.3373 -0.1582 -0.09725 -0.01135 -0.14325 -0.0654 -0.137775 -0.162675 0.008375 -0.097175 0.057025 -0.138875 0.14585 -0.12495 0.2002 0.027775 0.4919 0.0431 0.8749 0.046 0.266825 0.0026 0.532125 0.004075 0.79605 0.004075 0.085925 0.0029 0.129025 0.054075 0.129025 0.154225 0 0.094275 -0.068 0.14575 -0.204 0.1542 -0.214125 0.008075 -0.415525 0.056675 -0.6041 0.145775 -0.263925 0.11925 -0.54605 0.329025 -0.84605 0.629075 -0.021975 0.01675 -0.033325 0.03755 -0.033325 0.06245 0 0.0388 0.0472 0.132 0.14185 0.27925 0.347175 0.52775 0.675 0.926175 0.983125 1.195775 0.197325 0.169325 0.381925 0.254075 0.55405 0.254075 0.127925 0 0.207175 0.00895 0.23755 0.027175 0.03075 0.018 0.046075 0.066 0.046075 0.14355Z" stroke-width="0.25"></path>
</svg>